<svg width="287" height="291" viewBox="0 0 287 291" fill="none" xmlns="http://www.w3.org/2000/svg">
<path fill-rule="evenodd" clip-rule="evenodd" d="M286.108 145.873C286.378 164.021 289.219 182.684 283.096 199.778C276.944 216.951 263.792 230.522 251.084 243.641C238.551 256.58 224.867 268.439 208.749 276.529C192.605 284.632 175 289.964 156.947 290.889C139.122 291.803 121.75 286.909 104.633 281.868C87.6085 276.853 70.7592 271.131 56.0802 261.182C41.1271 251.047 27.1237 238.84 18.1039 223.22C9.14812 207.712 7.36748 189.423 4.44561 171.769C1.55953 154.331 -1.59122 136.815 0.907496 119.317C3.44342 101.559 9.52566 84.328 19.1015 69.1401C28.657 53.9845 42.3758 42.175 56.5092 31.1295C70.7738 19.9814 85.4817 8.81007 102.863 3.67863C120.292 -1.46686 138.792 -0.224812 156.888 1.49516C174.959 3.21285 192.75 6.72064 209.452 13.8098C226.576 21.078 243.519 29.8796 256.056 43.5877C268.593 57.2955 276.269 74.7839 281.498 92.5836C286.569 109.841 285.84 127.893 286.108 145.873Z" fill="#1D1D1D"/>
</svg>
