<svg width="100" height="50" viewBox="0 0 100 50" fill="none" xmlns="http://www.w3.org/2000/svg">
<rect width="100" height="50" fill="black"/>
<path d="M17.81 27.88C16.91 28.93 13.31 32.59 12.98 32.59C12.59 32.59 6.8 28.57 6.71 28.45C6.59 28.36 6.65 27.82 6.65 27.82C6.65 27.82 18.95 24.82 19.1 24.46C19.22 24.16 15.8 19.39 15.23 19.06C14.6 18.67 8.63 18.73 8.33 18.94C8.03 19.12 3.95 22.18 3.65 22.63C3.35 23.08 2.48 29.56 2.63 30.07C2.78 30.55 8.3 33.91 8.66 34.03C8.99 34.15 13.79 34.3 14.12 34.12C14.42 33.94 18.08 30.19 19.28 28.96C19.4 28.84 19.37 28.63 19.22 28.51L18.17 27.82C18.05 27.76 17.9 27.79 17.81 27.88ZM7.28 24.31C7.55 23.83 11.81 20.74 11.81 20.74C12.17 20.83 14.48 24.01 14.48 24.01L6.8 26.14C6.8 26.14 7.04 24.82 7.28 24.31ZM50.3497 33.55L47.8597 31.03C47.8597 28.06 47.8297 23.8 47.6797 23.23C47.4697 22.42 45.3997 19.18 44.5897 18.97C43.7497 18.76 40.5697 18.73 39.5797 18.85C39.0397 18.91 37.8397 20.08 36.9097 22.27C36.1897 20.98 34.8697 19.12 34.2697 18.97C33.4297 18.76 30.2497 18.73 29.2597 18.85C28.8397 18.91 27.9997 19.63 27.1897 21.04V19.3C27.1897 19.12 27.0697 19 26.8897 19H21.1897C20.9497 19 20.8297 19.27 21.0097 19.45L23.2897 21.55V31.09L23.2297 31.03L20.7397 33.55C20.5597 33.73 20.6797 34 20.9197 34H29.5297C29.7697 34 29.8897 33.73 29.7097 33.55L27.2197 31.03L27.1897 31.06V26.02C27.1897 23.2 29.8897 20.2 30.7897 20.08C31.5397 19.99 33.0697 23.08 33.1597 23.71C33.1897 24.01 33.2797 28.12 33.3397 31.03L30.8497 33.55C30.6697 33.73 30.7897 34 31.0297 34H39.8197C40.0597 34 40.1797 33.73 39.9997 33.55L37.5397 31.06C37.5397 29.5 37.5397 27.58 37.5097 26.02C37.5097 23.2 40.2097 20.2 41.1097 20.08C41.8597 19.99 43.3897 23.08 43.4797 23.71C43.5097 24.01 43.5997 28.12 43.6597 31.03L41.1697 33.55C40.9897 33.73 41.1097 34 41.3497 34H50.1697C50.4097 34 50.5297 33.73 50.3497 33.55ZM67.9318 33.55L65.4718 31.06V23.65C65.4718 23.38 65.3518 23.14 65.1718 22.96C64.2418 22.03 60.9118 19.18 59.0518 18.97C56.8918 18.7 51.5818 21.79 50.9218 22.24C50.7418 22.36 50.8018 22.57 50.8318 22.63L52.3918 25.48C52.4518 25.6 52.5418 25.6 52.6618 25.54C53.9518 24.73 60.4918 20.74 61.2418 21.25C61.6318 21.55 61.6318 23.26 61.6318 24.13C60.5218 24.49 54.2818 26.8 52.0918 28.42C51.5818 28.78 51.2218 29.56 51.2518 29.98C51.3718 30.64 53.1718 33.85 53.5618 33.97C53.9218 34.09 56.2318 34.15 56.6818 33.88C57.0718 33.64 60.7018 29.71 61.5418 28.39L61.4518 33.67C61.4518 33.85 61.6018 34 61.7818 34H67.7518C67.9918 34 68.1118 33.73 67.9318 33.55ZM56.2318 31.69C55.7518 31.66 55.0018 29.92 55.3618 29.2C56.2018 27.55 59.8918 26.53 61.5718 25.69V25.72C60.7018 27.34 56.7418 31.75 56.2318 31.69ZM73.1574 16.33C73.2774 16.45 73.4874 16.45 73.6074 16.33L75.8574 14.08C75.9774 13.93 75.9774 13.75 75.8574 13.63L73.6074 11.38C73.4874 11.23 73.2774 11.23 73.1574 11.38L70.9074 13.63C70.7874 13.75 70.7874 13.93 70.9074 14.08L73.1574 16.33ZM77.9274 33.55L75.4974 31.09V19.18C75.4974 19.09 75.4074 19 75.3174 19H69.4374C69.1974 19 69.0774 19.27 69.2574 19.45L71.6274 21.85V31.06L69.1674 33.55C68.9874 33.73 69.1074 34 69.3474 34H77.7474C77.9874 34 78.1074 33.73 77.9274 33.55ZM87.474 33.55L85.044 31.09V13.48C85.044 13.39 84.954 13.3 84.864 13.3H79.014C78.774 13.3 78.654 13.57 78.834 13.75L81.174 16.12V31L78.654 33.55C78.474 33.73 78.594 34 78.834 34H87.294C87.534 34 87.654 33.73 87.474 33.55ZM92.6607 23.95L90.4107 21.7C90.2907 21.55 90.2907 21.37 90.4107 21.25L92.6607 19C92.7807 18.85 92.9907 18.85 93.1107 19L95.3607 21.25C95.4807 21.37 95.4807 21.55 95.3607 21.7L93.1107 23.95C92.9907 24.07 92.7807 24.07 92.6607 23.95ZM92.6607 33.01L90.4107 30.76C90.2907 30.61 90.2907 30.43 90.4107 30.31L92.6607 28.06C92.7807 27.91 92.9907 27.91 93.1107 28.06L95.3607 30.31C95.4807 30.43 95.4807 30.61 95.3607 30.76L93.1107 33.01C92.9907 33.13 92.7807 33.13 92.6607 33.01Z" fill="white"/>
</svg>
