<svg width="146" height="50" viewBox="0 0 146 50" fill="none" xmlns="http://www.w3.org/2000/svg">
<rect width="146" height="50" fill="black" fill-opacity="0.99"/>
<path d="M32.42 33.55L29.93 31.03C29.93 28.06 29.9 23.8 29.75 23.23C29.54 22.42 27.47 19.18 26.66 18.97C25.82 18.76 22.64 18.73 21.65 18.85C21.11 18.91 19.91 20.08 18.98 22.27C18.26 20.98 16.94 19.12 16.34 18.97C15.5 18.76 12.32 18.73 11.33 18.85C10.91 18.91 10.07 19.63 9.26 21.04V19.3C9.26 19.12 9.14 19 8.96 19H3.26C3.02 19 2.9 19.27 3.08 19.45L5.36 21.55V31.09L5.3 31.03L2.81 33.55C2.63 33.73 2.75 34 2.99 34H11.6C11.84 34 11.96 33.73 11.78 33.55L9.29 31.03L9.26 31.06V26.02C9.26 23.2 11.96 20.2 12.86 20.08C13.61 19.99 15.14 23.08 15.23 23.71C15.26 24.01 15.35 28.12 15.41 31.03L12.92 33.55C12.74 33.73 12.86 34 13.1 34H21.89C22.13 34 22.25 33.73 22.07 33.55L19.61 31.06C19.61 29.5 19.61 27.58 19.58 26.02C19.58 23.2 22.28 20.2 23.18 20.08C23.93 19.99 25.46 23.08 25.55 23.71C25.58 24.01 25.67 28.12 25.73 31.03L23.24 33.55C23.06 33.73 23.18 34 23.42 34H32.24C32.48 34 32.6 33.73 32.42 33.55ZM48.5131 27.88C47.6131 28.93 44.0131 32.59 43.6831 32.59C43.2931 32.59 37.5031 28.57 37.4131 28.45C37.2931 28.36 37.3531 27.82 37.3531 27.82C37.3531 27.82 49.6531 24.82 49.8031 24.46C49.9231 24.16 46.5031 19.39 45.9331 19.06C45.3031 18.67 39.3331 18.73 39.0331 18.94C38.7331 19.12 34.6531 22.18 34.3531 22.63C34.0531 23.08 33.1831 29.56 33.3331 30.07C33.4831 30.55 39.0031 33.91 39.3631 34.03C39.6931 34.15 44.4931 34.3 44.8231 34.12C45.1231 33.94 48.7831 30.19 49.9831 28.96C50.1031 28.84 50.0731 28.63 49.9231 28.51L48.8731 27.82C48.7531 27.76 48.6031 27.79 48.5131 27.88ZM37.9831 24.31C38.2531 23.83 42.5131 20.74 42.5131 20.74C42.8731 20.83 45.1831 24.01 45.1831 24.01L37.5031 26.14C37.5031 26.14 37.7431 24.82 37.9831 24.31ZM65.0328 22.18L62.6328 24.01C62.5728 24.04 62.4828 24.07 62.3928 24.01C61.6428 23.41 57.0228 19.72 56.4528 19.99C55.9728 20.23 55.2828 23.38 55.5228 23.62C56.0028 24.07 64.1628 26.59 64.5228 27.19C64.9728 27.91 64.2828 31.66 64.0128 32.2C63.7428 32.77 58.3128 34.51 57.4128 34.27C55.4928 33.79 51.5928 31.39 50.7228 30.85C50.6328 30.79 50.6028 30.67 50.6628 30.58L52.4328 28.27C52.4928 28.18 52.5828 28.18 52.6428 28.24C53.6928 28.81 60.3228 32.59 60.6528 32.5C60.9828 32.38 61.1028 29.26 60.9528 28.99C60.8028 28.75 52.0728 25.81 51.8028 25.45C51.5328 25.09 52.1928 20.2 52.4628 19.78C52.7328 19.39 59.4228 18.46 60.2328 18.67C60.9228 18.85 64.1628 21.22 65.0328 21.88C65.1528 21.97 65.1528 22.09 65.0328 22.18ZM79.6227 22.18L77.2227 24.01C77.1627 24.04 77.0727 24.07 76.9827 24.01C76.2327 23.41 71.6127 19.72 71.0427 19.99C70.5627 20.23 69.8727 23.38 70.1127 23.62C70.5927 24.07 78.7527 26.59 79.1127 27.19C79.5627 27.91 78.8727 31.66 78.6027 32.2C78.3327 32.77 72.9027 34.51 72.0027 34.27C70.0827 33.79 66.1827 31.39 65.3127 30.85C65.2227 30.79 65.1927 30.67 65.2527 30.58L67.0227 28.27C67.0827 28.18 67.1727 28.18 67.2327 28.24C68.2827 28.81 74.9127 32.59 75.2427 32.5C75.5727 32.38 75.6927 29.26 75.5427 28.99C75.3927 28.75 66.6627 25.81 66.3927 25.45C66.1227 25.09 66.7827 20.2 67.0527 19.78C67.3227 19.39 74.0127 18.46 74.8227 18.67C75.5127 18.85 78.7527 21.22 79.6227 21.88C79.7427 21.97 79.7427 22.09 79.6227 22.18ZM98.1955 33.55L95.7355 31.06V23.65C95.7355 23.38 95.6155 23.14 95.4355 22.96C94.5055 22.03 91.1755 19.18 89.3155 18.97C87.1555 18.7 81.8455 21.79 81.1855 22.24C81.0055 22.36 81.0655 22.57 81.0955 22.63L82.6555 25.48C82.7155 25.6 82.8055 25.6 82.9255 25.54C84.2155 24.73 90.7555 20.74 91.5055 21.25C91.8955 21.55 91.8955 23.26 91.8955 24.13C90.7855 24.49 84.5455 26.8 82.3555 28.42C81.8455 28.78 81.4855 29.56 81.5155 29.98C81.6355 30.64 83.4355 33.85 83.8255 33.97C84.1855 34.09 86.4955 34.15 86.9455 33.88C87.3355 33.64 90.9655 29.71 91.8055 28.39L91.7155 33.67C91.7155 33.85 91.8655 34 92.0455 34H98.0155C98.2555 34 98.3755 33.73 98.1955 33.55ZM86.4955 31.69C86.0155 31.66 85.2655 29.92 85.6255 29.2C86.4655 27.55 90.1555 26.53 91.8355 25.69V25.72C90.9655 27.34 87.0055 31.75 86.4955 31.69ZM113.891 30.82C112.781 30.19 102.641 31.03 103.361 29.92C103.511 29.68 108.941 29.08 110.801 28.87C111.131 28.87 111.371 28.84 111.401 28.81C111.611 28.69 114.221 26.74 114.371 26.47C114.491 26.2 114.581 21.79 114.371 21.58C114.191 21.4 112.481 19.99 111.611 19.36L114.851 18.85C115.061 18.82 115.151 18.58 115.001 18.43L112.871 16.36C112.781 16.27 112.661 16.3 112.601 16.39L110.741 19C109.331 18.94 104.831 19 104.471 19.15C103.961 19.33 100.901 21.37 100.721 21.7C100.571 22.03 100.661 25.93 100.871 26.32C101.051 26.71 103.721 28.72 104.111 28.84C104.141 28.84 104.261 28.87 104.411 28.87C102.431 28.99 100.061 29.2 99.8211 29.41C99.4011 29.74 101.921 32.95 102.461 33.19C102.671 33.28 110.621 33.88 111.071 34.06C111.791 34.36 113.171 37.24 112.871 37.45C112.481 37.72 106.061 37.72 105.851 37.57C105.611 37.39 102.911 33.73 102.461 33.73C102.191 33.73 101.291 36.94 101.351 37.36C101.411 37.75 105.371 40.63 105.671 40.51C105.941 40.39 116.051 37.72 116.171 37.24C116.261 36.79 114.371 31.09 113.891 30.82ZM103.931 26.14C103.781 25.99 103.751 22.36 104.021 22.06C104.351 21.7 111.191 21.85 111.311 22C111.521 22.21 111.521 25.9 111.371 26.08C111.221 26.23 104.081 26.29 103.931 26.14ZM131.98 27.88C131.08 28.93 127.48 32.59 127.15 32.59C126.76 32.59 120.97 28.57 120.88 28.45C120.76 28.36 120.82 27.82 120.82 27.82C120.82 27.82 133.12 24.82 133.27 24.46C133.39 24.16 129.97 19.39 129.4 19.06C128.77 18.67 122.8 18.73 122.5 18.94C122.2 19.12 118.12 22.18 117.82 22.63C117.52 23.08 116.65 29.56 116.8 30.07C116.95 30.55 122.47 33.91 122.83 34.03C123.16 34.15 127.96 34.3 128.29 34.12C128.59 33.94 132.25 30.19 133.45 28.96C133.57 28.84 133.54 28.63 133.39 28.51L132.34 27.82C132.22 27.76 132.07 27.79 131.98 27.88ZM121.45 24.31C121.72 23.83 125.98 20.74 125.98 20.74C126.34 20.83 128.65 24.01 128.65 24.01L120.97 26.14C120.97 26.14 121.21 24.82 121.45 24.31ZM138.54 23.95L136.29 21.7C136.17 21.55 136.17 21.37 136.29 21.25L138.54 19C138.66 18.85 138.87 18.85 138.99 19L141.24 21.25C141.36 21.37 141.36 21.55 141.24 21.7L138.99 23.95C138.87 24.07 138.66 24.07 138.54 23.95ZM138.54 33.01L136.29 30.76C136.17 30.61 136.17 30.43 136.29 30.31L138.54 28.06C138.66 27.91 138.87 27.91 138.99 28.06L141.24 30.31C141.36 30.43 141.36 30.61 141.24 30.76L138.99 33.01C138.87 33.13 138.66 33.13 138.54 33.01Z" fill="white"/>
</svg>
