<svg width="140" height="25" viewBox="0 0 140 25" fill="none" xmlns="http://www.w3.org/2000/svg">
<path d="M30.42 17.5501L27.93 15.0301C27.93 12.0601 27.9 7.80006 27.75 7.23006C27.54 6.42006 25.47 3.18006 24.66 2.97006C23.82 2.76006 20.64 2.73006 19.65 2.85006C19.11 2.91006 17.91 4.08006 16.98 6.27006C16.26 4.98006 14.94 3.12006 14.34 2.97006C13.5 2.76006 10.32 2.73006 9.33 2.85006C8.91 2.91006 8.07 3.63006 7.26 5.04006V3.30006C7.26 3.12006 7.14 3.00006 6.96 3.00006H1.26C1.02 3.00006 0.9 3.27006 1.08 3.45006L3.36 5.55006V15.0901L3.3 15.0301L0.81 17.5501C0.63 17.7301 0.75 18.0001 0.99 18.0001H9.6C9.84 18.0001 9.96 17.7301 9.78 17.5501L7.29 15.0301L7.26 15.0601V10.0201C7.26 7.20006 9.96 4.20006 10.86 4.08006C11.61 3.99006 13.14 7.08006 13.23 7.71006C13.26 8.01006 13.35 12.1201 13.41 15.0301L10.92 17.5501C10.74 17.7301 10.86 18.0001 11.1 18.0001H19.89C20.13 18.0001 20.25 17.7301 20.07 17.5501L17.61 15.0601C17.61 13.5001 17.61 11.5801 17.58 10.0201C17.58 7.20006 20.28 4.20006 21.18 4.08006C21.93 3.99006 23.46 7.08006 23.55 7.71006C23.58 8.01006 23.67 12.1201 23.73 15.0301L21.24 17.5501C21.06 17.7301 21.18 18.0001 21.42 18.0001H30.24C30.48 18.0001 30.6 17.7301 30.42 17.5501ZM46.5131 11.8801C45.6131 12.9301 42.0131 16.5901 41.6831 16.5901C41.2931 16.5901 35.5031 12.5701 35.4131 12.4501C35.2931 12.3601 35.3531 11.8201 35.3531 11.8201C35.3531 11.8201 47.6531 8.82006 47.8031 8.46006C47.9231 8.16006 44.5031 3.39006 43.9331 3.06006C43.3031 2.67006 37.3331 2.73006 37.0331 2.94006C36.7331 3.12006 32.6531 6.18006 32.3531 6.63006C32.0531 7.08006 31.1831 13.5601 31.3331 14.0701C31.4831 14.5501 37.0031 17.9101 37.3631 18.0301C37.6931 18.1501 42.4931 18.3001 42.8231 18.1201C43.1231 17.9401 46.7831 14.1901 47.9831 12.9601C48.1031 12.8401 48.0731 12.6301 47.9231 12.5101L46.8731 11.8201C46.7531 11.7601 46.6031 11.7901 46.5131 11.8801ZM35.9831 8.31006C36.2531 7.83006 40.5131 4.74006 40.5131 4.74006C40.8731 4.83006 43.1831 8.01006 43.1831 8.01006L35.5031 10.1401C35.5031 10.1401 35.7431 8.82006 35.9831 8.31006ZM63.0328 6.18006L60.6328 8.01006C60.5728 8.04006 60.4828 8.07006 60.3928 8.01006C59.6428 7.41006 55.0228 3.72006 54.4528 3.99006C53.9728 4.23006 53.2828 7.38006 53.5228 7.62006C54.0028 8.07006 62.1628 10.5901 62.5228 11.1901C62.9728 11.9101 62.2828 15.6601 62.0128 16.2001C61.7428 16.7701 56.3128 18.5101 55.4128 18.2701C53.4928 17.7901 49.5928 15.3901 48.7228 14.8501C48.6328 14.7901 48.6028 14.6701 48.6628 14.5801L50.4328 12.2701C50.4928 12.1801 50.5828 12.1801 50.6428 12.2401C51.6928 12.8101 58.3228 16.5901 58.6528 16.5001C58.9828 16.3801 59.1028 13.2601 58.9528 12.9901C58.8028 12.7501 50.0728 9.81006 49.8028 9.45006C49.5328 9.09006 50.1928 4.20006 50.4628 3.78006C50.7328 3.39006 57.4228 2.46006 58.2328 2.67006C58.9228 2.85006 62.1628 5.22006 63.0328 5.88006C63.1528 5.97006 63.1528 6.09006 63.0328 6.18006ZM77.6227 6.18006L75.2227 8.01006C75.1627 8.04006 75.0727 8.07006 74.9827 8.01006C74.2327 7.41006 69.6127 3.72006 69.0427 3.99006C68.5627 4.23006 67.8727 7.38006 68.1127 7.62006C68.5927 8.07006 76.7527 10.5901 77.1127 11.1901C77.5627 11.9101 76.8727 15.6601 76.6027 16.2001C76.3327 16.7701 70.9027 18.5101 70.0027 18.2701C68.0827 17.7901 64.1827 15.3901 63.3127 14.8501C63.2227 14.7901 63.1927 14.6701 63.2527 14.5801L65.0227 12.2701C65.0827 12.1801 65.1727 12.1801 65.2327 12.2401C66.2827 12.8101 72.9127 16.5901 73.2427 16.5001C73.5727 16.3801 73.6927 13.2601 73.5427 12.9901C73.3927 12.7501 64.6627 9.81006 64.3927 9.45006C64.1227 9.09006 64.7827 4.20006 65.0527 3.78006C65.3227 3.39006 72.0127 2.46006 72.8227 2.67006C73.5127 2.85006 76.7527 5.22006 77.6227 5.88006C77.7427 5.97006 77.7427 6.09006 77.6227 6.18006ZM96.1955 17.5501L93.7355 15.0601V7.65006C93.7355 7.38006 93.6155 7.14006 93.4355 6.96006C92.5055 6.03006 89.1755 3.18006 87.3155 2.97006C85.1555 2.70006 79.8455 5.79006 79.1855 6.24006C79.0055 6.36006 79.0655 6.57006 79.0955 6.63006L80.6555 9.48006C80.7155 9.60006 80.8055 9.60006 80.9255 9.54006C82.2155 8.73006 88.7555 4.74006 89.5055 5.25006C89.8955 5.55006 89.8955 7.26006 89.8955 8.13006C88.7855 8.49006 82.5455 10.8001 80.3555 12.4201C79.8455 12.7801 79.4855 13.5601 79.5155 13.9801C79.6355 14.6401 81.4355 17.8501 81.8255 17.9701C82.1855 18.0901 84.4955 18.1501 84.9455 17.8801C85.3355 17.6401 88.9655 13.7101 89.8055 12.3901L89.7155 17.6701C89.7155 17.8501 89.8655 18.0001 90.0455 18.0001H96.0155C96.2555 18.0001 96.3755 17.7301 96.1955 17.5501ZM84.4955 15.6901C84.0155 15.6601 83.2655 13.9201 83.6255 13.2001C84.4655 11.5501 88.1555 10.5301 89.8355 9.69006V9.72006C88.9655 11.3401 85.0055 15.7501 84.4955 15.6901ZM111.891 14.8201C110.781 14.1901 100.641 15.0301 101.361 13.9201C101.511 13.6801 106.941 13.0801 108.801 12.8701C109.131 12.8701 109.371 12.8401 109.401 12.8101C109.611 12.6901 112.221 10.7401 112.371 10.4701C112.491 10.2001 112.581 5.79006 112.371 5.58006C112.191 5.40006 110.481 3.99006 109.611 3.36006L112.851 2.85006C113.061 2.82006 113.151 2.58006 113.001 2.43006L110.871 0.360061C110.781 0.27006 110.661 0.30006 110.601 0.390061L108.741 3.00006C107.331 2.94006 102.831 3.00006 102.471 3.15006C101.961 3.33006 98.9011 5.37006 98.7211 5.70006C98.5711 6.03006 98.6611 9.93006 98.8711 10.3201C99.0511 10.7101 101.721 12.7201 102.111 12.8401C102.141 12.8401 102.261 12.8701 102.411 12.8701C100.431 12.9901 98.0611 13.2001 97.8211 13.4101C97.4011 13.7401 99.9211 16.9501 100.461 17.1901C100.671 17.2801 108.621 17.8801 109.071 18.0601C109.791 18.3601 111.171 21.2401 110.871 21.4501C110.481 21.7201 104.061 21.7201 103.851 21.5701C103.611 21.3901 100.911 17.7301 100.461 17.7301C100.191 17.7301 99.2911 20.9401 99.3511 21.3601C99.4111 21.7501 103.371 24.6301 103.671 24.5101C103.941 24.3901 114.051 21.7201 114.171 21.2401C114.261 20.7901 112.371 15.0901 111.891 14.8201ZM101.931 10.1401C101.781 9.99006 101.751 6.36006 102.021 6.06006C102.351 5.70006 109.191 5.85006 109.311 6.00006C109.521 6.21006 109.521 9.90006 109.371 10.0801C109.221 10.2301 102.081 10.2901 101.931 10.1401ZM129.98 11.8801C129.08 12.9301 125.48 16.5901 125.15 16.5901C124.76 16.5901 118.97 12.5701 118.88 12.4501C118.76 12.3601 118.82 11.8201 118.82 11.8201C118.82 11.8201 131.12 8.82006 131.27 8.46006C131.39 8.16006 127.97 3.39006 127.4 3.06006C126.77 2.67006 120.8 2.73006 120.5 2.94006C120.2 3.12006 116.12 6.18006 115.82 6.63006C115.52 7.08006 114.65 13.5601 114.8 14.0701C114.95 14.5501 120.47 17.9101 120.83 18.0301C121.16 18.1501 125.96 18.3001 126.29 18.1201C126.59 17.9401 130.25 14.1901 131.45 12.9601C131.57 12.8401 131.54 12.6301 131.39 12.5101L130.34 11.8201C130.22 11.7601 130.07 11.7901 129.98 11.8801ZM119.45 8.31006C119.72 7.83006 123.98 4.74006 123.98 4.74006C124.34 4.83006 126.65 8.01006 126.65 8.01006L118.97 10.1401C118.97 10.1401 119.21 8.82006 119.45 8.31006ZM136.54 7.95006L134.29 5.70006C134.17 5.55006 134.17 5.37006 134.29 5.25006L136.54 3.00006C136.66 2.85006 136.87 2.85006 136.99 3.00006L139.24 5.25006C139.36 5.37006 139.36 5.55006 139.24 5.70006L136.99 7.95006C136.87 8.07006 136.66 8.07006 136.54 7.95006ZM136.54 17.0101L134.29 14.7601C134.17 14.6101 134.17 14.4301 134.29 14.3101L136.54 12.0601C136.66 11.9101 136.87 11.9101 136.99 12.0601L139.24 14.3101C139.36 14.4301 139.36 14.6101 139.24 14.7601L136.99 17.0101C136.87 17.1301 136.66 17.1301 136.54 17.0101Z" fill="white"/>
</svg>
