<svg width="101" height="50" viewBox="0 0 101 50" fill="none" xmlns="http://www.w3.org/2000/svg">
<rect width="101" height="50" fill="black" fill-opacity="0.99"/>
<path d="M22.31 33.55L19.85 31.06C19.85 28.09 19.82 23.83 19.67 23.26C19.46 22.45 17.39 19.24 16.58 19C15.74 18.76 12.56 18.76 11.57 18.88C11.15 18.94 10.13 19.63 9.17 20.98V19.18C9.17 19.09 9.08 19 8.99 19H3.2C2.93 19 2.84 19.3 3.02 19.48L5.3 21.52V31.03L2.81 33.55C2.63 33.73 2.75 34 2.99 34H11.48C11.72 34 11.84 33.73 11.66 33.55L9.17 31.03V24.58C9.98 22.27 12.35 20.2 13.1 20.11C13.85 20.02 15.38 23.11 15.47 23.74C15.5 24.04 15.59 28.12 15.62 31.03L13.13 33.55C12.95 33.73 13.07 34 13.31 34H22.13C22.37 34 22.49 33.73 22.31 33.55ZM39.8947 33.55L37.4347 31.06V23.65C37.4347 23.38 37.3147 23.14 37.1347 22.96C36.2047 22.03 32.8747 19.18 31.0147 18.97C28.8547 18.7 23.5447 21.79 22.8847 22.24C22.7047 22.36 22.7647 22.57 22.7947 22.63L24.3547 25.48C24.4147 25.6 24.5047 25.6 24.6247 25.54C25.9147 24.73 32.4547 20.74 33.2047 21.25C33.5947 21.55 33.5947 23.26 33.5947 24.13C32.4847 24.49 26.2447 26.8 24.0547 28.42C23.5447 28.78 23.1847 29.56 23.2147 29.98C23.3347 30.64 25.1347 33.85 25.5247 33.97C25.8847 34.09 28.1947 34.15 28.6447 33.88C29.0347 33.64 32.6647 29.71 33.5047 28.39L33.4147 33.67C33.4147 33.85 33.5647 34 33.7447 34H39.7147C39.9547 34 40.0747 33.73 39.8947 33.55ZM28.1947 31.69C27.7147 31.66 26.9647 29.92 27.3247 29.2C28.1647 27.55 31.8547 26.53 33.5347 25.69V25.72C32.6647 27.34 28.7047 31.75 28.1947 31.69ZM70.7403 33.55L68.2503 31.03C68.2503 28.06 68.2203 23.8 68.0703 23.23C67.8603 22.42 65.7903 19.18 64.9803 18.97C64.1403 18.76 60.9603 18.73 59.9703 18.85C59.4303 18.91 58.2303 20.08 57.3003 22.27C56.5803 20.98 55.2603 19.12 54.6603 18.97C53.8203 18.76 50.6403 18.73 49.6503 18.85C49.2303 18.91 48.3903 19.63 47.5803 21.04V19.3C47.5803 19.12 47.4603 19 47.2803 19H41.5803C41.3403 19 41.2203 19.27 41.4003 19.45L43.6803 21.55V31.09L43.6203 31.03L41.1303 33.55C40.9503 33.73 41.0703 34 41.3103 34H49.9203C50.1603 34 50.2803 33.73 50.1003 33.55L47.6103 31.03L47.5803 31.06V26.02C47.5803 23.2 50.2803 20.2 51.1803 20.08C51.9303 19.99 53.4603 23.08 53.5503 23.71C53.5803 24.01 53.6703 28.12 53.7303 31.03L51.2403 33.55C51.0603 33.73 51.1803 34 51.4203 34H60.2103C60.4503 34 60.5703 33.73 60.3903 33.55L57.9303 31.06C57.9303 29.5 57.9303 27.58 57.9003 26.02C57.9003 23.2 60.6003 20.2 61.5003 20.08C62.2503 19.99 63.7803 23.08 63.8703 23.71C63.9003 24.01 63.9903 28.12 64.0503 31.03L61.5603 33.55C61.3803 33.73 61.5003 34 61.7403 34H70.5603C70.8003 34 70.9203 33.73 70.7403 33.55ZM86.8334 27.88C85.9334 28.93 82.3334 32.59 82.0034 32.59C81.6134 32.59 75.8234 28.57 75.7334 28.45C75.6134 28.36 75.6734 27.82 75.6734 27.82C75.6734 27.82 87.9734 24.82 88.1234 24.46C88.2434 24.16 84.8234 19.39 84.2534 19.06C83.6234 18.67 77.6534 18.73 77.3534 18.94C77.0534 19.12 72.9734 22.18 72.6734 22.63C72.3734 23.08 71.5034 29.56 71.6534 30.07C71.8034 30.55 77.3234 33.91 77.6834 34.03C78.0134 34.15 82.8134 34.3 83.1434 34.12C83.4434 33.94 87.1034 30.19 88.3034 28.96C88.4234 28.84 88.3934 28.63 88.2434 28.51L87.1934 27.82C87.0734 27.76 86.9234 27.79 86.8334 27.88ZM76.3034 24.31C76.5734 23.83 80.8334 20.74 80.8334 20.74C81.1934 20.83 83.5034 24.01 83.5034 24.01L75.8234 26.14C75.8234 26.14 76.0634 24.82 76.3034 24.31ZM93.3931 23.95L91.1431 21.7C91.0231 21.55 91.0231 21.37 91.1431 21.25L93.3931 19C93.5131 18.85 93.7231 18.85 93.8431 19L96.0931 21.25C96.2131 21.37 96.2131 21.55 96.0931 21.7L93.8431 23.95C93.7231 24.07 93.5131 24.07 93.3931 23.95ZM93.3931 33.01L91.1431 30.76C91.0231 30.61 91.0231 30.43 91.1431 30.31L93.3931 28.06C93.5131 27.91 93.7231 27.91 93.8431 28.06L96.0931 30.31C96.2131 30.43 96.2131 30.61 96.0931 30.76L93.8431 33.01C93.7231 33.13 93.5131 33.13 93.3931 33.01Z" fill="white"/>
</svg>
