<svg width="60" height="60" viewBox="0 0 60 60" fill="none" xmlns="http://www.w3.org/2000/svg">
<circle cx="30" cy="30" r="30" fill="black"/>
<path d="M16.5788 17.268C16.5788 17.5387 16.6721 17.772 16.8588 17.968C17.0548 18.164 17.3348 18.3693 17.6988 18.584C18.0534 18.7893 18.3148 18.9527 18.4828 19.074C18.6601 19.186 18.8188 19.3493 18.9588 19.564C19.0988 19.7693 19.1688 20.0213 19.1688 20.32C19.1688 20.6373 19.0894 20.936 18.9308 21.216C18.7721 21.496 18.5341 21.7247 18.2168 21.902C17.8994 22.07 17.5214 22.154 17.0828 22.154C16.5694 22.154 16.0841 22.028 15.6268 21.776C15.5708 21.72 15.5428 21.664 15.5428 21.608L15.5148 20.222C15.5148 20.194 15.5381 20.18 15.5848 20.18C15.6408 20.1707 15.6734 20.1753 15.6828 20.194C15.8321 20.6607 16.0794 21.0573 16.4248 21.384C16.7701 21.7107 17.1201 21.874 17.4748 21.874C17.6708 21.874 17.8248 21.8133 17.9368 21.692C18.0581 21.5707 18.1188 21.3933 18.1188 21.16C18.1188 20.8147 18.0208 20.544 17.8248 20.348C17.6288 20.1427 17.3394 19.9327 16.9568 19.718C16.6301 19.5407 16.3828 19.396 16.2148 19.284C16.0468 19.172 15.8974 19.0133 15.7668 18.808C15.6361 18.6027 15.5708 18.3507 15.5708 18.052C15.5708 17.5013 15.7668 17.1 16.1588 16.848C16.5508 16.5867 17.0314 16.456 17.6008 16.456C17.8154 16.456 18.0068 16.47 18.1748 16.498C18.3521 16.526 18.5481 16.582 18.7628 16.666C18.8468 16.694 18.8888 16.7453 18.8888 16.82C18.8888 17.0533 18.8841 17.2353 18.8748 17.366L18.8608 18.066C18.8608 18.094 18.8328 18.108 18.7768 18.108C18.7208 18.108 18.6928 18.094 18.6928 18.066C18.6928 17.8887 18.6181 17.6973 18.4688 17.492C18.3194 17.2773 18.1234 17.0953 17.8808 16.946C17.6474 16.7967 17.4048 16.722 17.1528 16.722C16.7701 16.722 16.5788 16.904 16.5788 17.268ZM22.9196 22.168C22.3036 22.168 21.7809 22.0373 21.3516 21.776C20.9316 21.5053 20.6142 21.16 20.3996 20.74C20.1942 20.3107 20.0916 19.8627 20.0916 19.396C20.0916 18.808 20.2549 18.2947 20.5816 17.856C20.9082 17.408 21.3236 17.0673 21.8276 16.834C22.3409 16.5913 22.8636 16.47 23.3956 16.47C23.8436 16.47 24.2449 16.5633 24.5996 16.75C24.9636 16.9367 25.1456 17.1933 25.1456 17.52C25.1456 17.6973 25.0756 17.8513 24.9356 17.982C24.8049 18.1033 24.6182 18.164 24.3756 18.164C24.1516 18.164 23.9742 18.108 23.8436 17.996C23.7129 17.8747 23.6056 17.6927 23.5216 17.45C23.4376 17.1887 23.3536 17.0113 23.2696 16.918C23.1949 16.8153 23.0549 16.764 22.8496 16.764C22.4482 16.764 22.1262 16.9647 21.8836 17.366C21.6502 17.758 21.5336 18.2807 21.5336 18.934C21.5336 19.7087 21.7062 20.3293 22.0516 20.796C22.3969 21.2533 22.9476 21.482 23.7036 21.482C23.9556 21.482 24.1702 21.454 24.3476 21.398C24.5342 21.342 24.7676 21.2487 25.0476 21.118H25.0616C25.0896 21.118 25.1129 21.132 25.1316 21.16C25.1596 21.188 25.1642 21.2113 25.1456 21.23C24.8002 21.5473 24.4549 21.7853 24.1096 21.944C23.7642 22.0933 23.3676 22.168 22.9196 22.168ZM29.7768 16.456C29.9915 16.456 30.1968 16.5353 30.3928 16.694C30.5982 16.8433 30.7008 17.0253 30.7008 17.24C30.7008 17.436 30.6402 17.5993 30.5188 17.73C30.3975 17.8513 30.2388 17.912 30.0428 17.912C29.9028 17.912 29.7862 17.884 29.6928 17.828C29.6088 17.772 29.5202 17.688 29.4268 17.576C29.3428 17.4827 29.2682 17.4173 29.2028 17.38C29.1468 17.3333 29.0768 17.31 28.9928 17.31C28.8995 17.31 28.7968 17.3473 28.6848 17.422C28.5822 17.4873 28.4188 17.632 28.1948 17.856V20.866C28.1948 21.2393 28.2835 21.496 28.4608 21.636C28.6382 21.7667 28.9648 21.832 29.4408 21.832C29.4782 21.832 29.4968 21.86 29.4968 21.916C29.4968 21.972 29.4782 22 29.4408 22C29.1142 22 28.8575 21.9953 28.6708 21.986L27.5368 21.972L26.7108 21.986C26.5708 21.9953 26.3795 22 26.1368 22C26.1088 22 26.0948 21.972 26.0948 21.916C26.0948 21.86 26.1088 21.832 26.1368 21.832C26.4262 21.832 26.6222 21.7667 26.7248 21.636C26.8275 21.496 26.8788 21.2393 26.8788 20.866V18.234C26.8788 17.9447 26.8415 17.7347 26.7668 17.604C26.7015 17.464 26.5942 17.394 26.4448 17.394C26.2862 17.394 26.0622 17.4593 25.7728 17.59H25.7448C25.7168 17.59 25.6935 17.5667 25.6748 17.52C25.6655 17.4733 25.6702 17.4453 25.6888 17.436L27.6348 16.484C27.6908 16.4653 27.7235 16.456 27.7328 16.456C27.8355 16.456 27.9288 16.554 28.0128 16.75C28.1062 16.9367 28.1622 17.1933 28.1808 17.52C28.5635 17.128 28.8762 16.8527 29.1188 16.694C29.3708 16.5353 29.5902 16.456 29.7768 16.456ZM34.0494 22.182C33.4708 22.182 32.9621 22.0513 32.5234 21.79C32.0941 21.5193 31.7628 21.16 31.5294 20.712C31.2961 20.2547 31.1794 19.76 31.1794 19.228C31.1794 18.6213 31.3334 18.108 31.6414 17.688C31.9494 17.2587 32.3414 16.9413 32.8174 16.736C33.2934 16.5213 33.7834 16.414 34.2874 16.414C34.8661 16.414 35.3701 16.5493 35.7994 16.82C36.2288 17.0907 36.5554 17.45 36.7794 17.898C37.0128 18.3367 37.1294 18.808 37.1294 19.312C37.1294 19.872 36.9894 20.3713 36.7094 20.81C36.4294 21.2393 36.0514 21.5753 35.5754 21.818C35.1088 22.0607 34.6001 22.182 34.0494 22.182ZM34.4694 21.888C34.8334 21.888 35.1088 21.7107 35.2954 21.356C35.4914 20.992 35.5894 20.474 35.5894 19.802C35.5894 19.1487 35.5054 18.5887 35.3374 18.122C35.1694 17.6553 34.9501 17.3053 34.6794 17.072C34.4088 16.8293 34.1194 16.708 33.8114 16.708C33.0648 16.708 32.6914 17.3753 32.6914 18.71C32.6914 19.3353 32.7708 19.8907 32.9294 20.376C33.0881 20.852 33.3028 21.2253 33.5734 21.496C33.8441 21.7573 34.1428 21.888 34.4694 21.888ZM38.0711 22C38.0524 22 38.0431 21.972 38.0431 21.916C38.0431 21.86 38.0524 21.832 38.0711 21.832C38.3604 21.832 38.5564 21.7667 38.6591 21.636C38.7711 21.496 38.8271 21.2393 38.8271 20.866L38.8411 13.754C38.8411 13.4273 38.8084 13.194 38.7431 13.054C38.6871 12.914 38.5844 12.844 38.4351 12.844C38.3137 12.844 38.1364 12.8953 37.9031 12.998H37.8891C37.8611 12.998 37.8331 12.9747 37.8051 12.928C37.7864 12.872 37.7864 12.8393 37.8051 12.83L39.8631 11.864L39.9191 11.85C39.9657 11.85 40.0171 11.8733 40.0731 11.92C40.1291 11.9573 40.1571 11.9947 40.1571 12.032V20.866C40.1571 21.2393 40.2084 21.496 40.3111 21.636C40.4137 21.7667 40.6097 21.832 40.8991 21.832C40.9364 21.832 40.9551 21.86 40.9551 21.916C40.9551 21.972 40.9364 22 40.8991 22C40.6657 22 40.4791 21.9953 40.3391 21.986L39.4851 21.972L38.6451 21.986C38.5051 21.9953 38.3137 22 38.0711 22ZM41.8171 22C41.7985 22 41.7891 21.972 41.7891 21.916C41.7891 21.86 41.7985 21.832 41.8171 21.832C42.1065 21.832 42.3025 21.7667 42.4051 21.636C42.5171 21.496 42.5731 21.2393 42.5731 20.866L42.5871 13.754C42.5871 13.4273 42.5545 13.194 42.4891 13.054C42.4331 12.914 42.3305 12.844 42.1811 12.844C42.0598 12.844 41.8825 12.8953 41.6491 12.998H41.6351C41.6071 12.998 41.5791 12.9747 41.5511 12.928C41.5325 12.872 41.5325 12.8393 41.5511 12.83L43.6091 11.864L43.6651 11.85C43.7118 11.85 43.7631 11.8733 43.8191 11.92C43.8751 11.9573 43.9031 11.9947 43.9031 12.032V20.866C43.9031 21.2393 43.9545 21.496 44.0571 21.636C44.1598 21.7667 44.3558 21.832 44.6451 21.832C44.6825 21.832 44.7011 21.86 44.7011 21.916C44.7011 21.972 44.6825 22 44.6451 22C44.4118 22 44.2251 21.9953 44.0851 21.986L43.2311 21.972L42.3911 21.986C42.2511 21.9953 42.0598 22 41.8171 22Z" fill="white"/>
<path d="M32.2025 31.678C32.2185 31.682 32.2245 31.696 32.2205 31.72C32.2205 31.74 32.2145 31.75 32.2025 31.75H31.2185C31.1065 31.75 30.9145 31.652 30.6425 31.456C30.3425 31.7 29.9605 31.822 29.4965 31.822C29.2205 31.822 28.9885 31.782 28.8005 31.702C28.6125 31.622 28.4725 31.516 28.3805 31.384C28.2885 31.252 28.2425 31.112 28.2425 30.964C28.2425 30.772 28.3085 30.6 28.4405 30.448C28.5725 30.296 28.7725 30.12 29.0405 29.92C28.9765 29.836 28.9145 29.74 28.8545 29.632C28.7985 29.52 28.7545 29.414 28.7225 29.314C28.6945 29.214 28.6805 29.104 28.6805 28.984C28.6805 28.66 28.7825 28.394 28.9865 28.186C29.1945 27.978 29.4765 27.874 29.8325 27.874C30.0805 27.874 30.2765 27.928 30.4205 28.036C30.5645 28.14 30.6365 28.286 30.6365 28.474C30.6365 28.63 30.5905 28.774 30.4985 28.906C30.4105 29.034 30.3085 29.142 30.1925 29.23C30.0765 29.318 29.8965 29.444 29.6525 29.608C29.9405 30.036 30.3425 30.456 30.8585 30.868C30.8945 30.728 30.9125 30.57 30.9125 30.394C30.9125 30.162 30.8745 29.994 30.7985 29.89C30.7225 29.782 30.5985 29.728 30.4265 29.728C30.4185 29.728 30.4125 29.716 30.4085 29.692C30.4085 29.668 30.4145 29.656 30.4265 29.656L31.8545 29.65C31.8665 29.65 31.8725 29.662 31.8725 29.686C31.8725 29.71 31.8665 29.722 31.8545 29.722C31.7345 29.722 31.6445 29.736 31.5845 29.764C31.5285 29.788 31.4845 29.83 31.4525 29.89C31.4245 29.95 31.3925 30.046 31.3565 30.178C31.3125 30.338 31.2665 30.484 31.2185 30.616C31.1705 30.748 31.1085 30.876 31.0325 31C31.2925 31.196 31.5225 31.35 31.7225 31.462C31.9265 31.574 32.0865 31.646 32.2025 31.678ZM29.2445 28.468C29.2445 28.78 29.3545 29.118 29.5745 29.482C29.8585 29.206 30.0005 28.912 30.0005 28.6C30.0005 28.424 29.9585 28.286 29.8745 28.186C29.7945 28.086 29.6885 28.036 29.5565 28.036C29.4445 28.036 29.3645 28.072 29.3165 28.144C29.2685 28.216 29.2445 28.324 29.2445 28.468ZM29.9585 31.528C30.1905 31.528 30.3825 31.476 30.5345 31.372C30.4705 31.328 30.3845 31.262 30.2765 31.174C30.0725 31.01 29.8665 30.828 29.6585 30.628C29.4545 30.424 29.2745 30.224 29.1185 30.028C28.9385 30.216 28.8485 30.414 28.8485 30.622C28.8485 30.778 28.8925 30.926 28.9805 31.066C29.0725 31.202 29.2025 31.314 29.3705 31.402C29.5385 31.486 29.7345 31.528 29.9585 31.528Z" fill="white"/>
<path d="M20.1783 46.168C19.5623 46.168 19.0397 46.0373 18.6103 45.776C18.1903 45.5053 17.873 45.16 17.6583 44.74C17.453 44.3107 17.3503 43.8627 17.3503 43.396C17.3503 42.808 17.5137 42.2947 17.8403 41.856C18.167 41.408 18.5823 41.0673 19.0863 40.834C19.5997 40.5913 20.1223 40.47 20.6543 40.47C21.1023 40.47 21.5037 40.5633 21.8583 40.75C22.2223 40.9367 22.4043 41.1933 22.4043 41.52C22.4043 41.6973 22.3343 41.8513 22.1943 41.982C22.0637 42.1033 21.877 42.164 21.6343 42.164C21.4103 42.164 21.233 42.108 21.1023 41.996C20.9717 41.8747 20.8643 41.6927 20.7803 41.45C20.6963 41.1887 20.6123 41.0113 20.5283 40.918C20.4537 40.8153 20.3137 40.764 20.1083 40.764C19.707 40.764 19.385 40.9647 19.1423 41.366C18.909 41.758 18.7923 42.2807 18.7923 42.934C18.7923 43.7087 18.965 44.3293 19.3103 44.796C19.6557 45.2533 20.2063 45.482 20.9623 45.482C21.2143 45.482 21.429 45.454 21.6063 45.398C21.793 45.342 22.0263 45.2487 22.3063 45.118H22.3203C22.3483 45.118 22.3717 45.132 22.3903 45.16C22.4183 45.188 22.423 45.2113 22.4043 45.23C22.059 45.5473 21.7137 45.7853 21.3683 45.944C21.023 46.0933 20.6263 46.168 20.1783 46.168ZM23.3396 46C23.3209 46 23.3116 45.972 23.3116 45.916C23.3116 45.86 23.3209 45.832 23.3396 45.832C23.6289 45.832 23.8249 45.7667 23.9276 45.636C24.0396 45.496 24.0956 45.2393 24.0956 44.866L24.1096 37.754C24.1096 37.4273 24.0769 37.194 24.0116 37.054C23.9556 36.914 23.8529 36.844 23.7036 36.844C23.5823 36.844 23.4049 36.8953 23.1716 36.998H23.1576C23.1296 36.998 23.1016 36.9747 23.0736 36.928C23.0549 36.872 23.0549 36.8393 23.0736 36.83L25.1316 35.864L25.1876 35.85C25.2343 35.85 25.2856 35.8733 25.3416 35.92C25.3976 35.9573 25.4256 35.9947 25.4256 36.032V44.866C25.4256 45.2393 25.4769 45.496 25.5796 45.636C25.6823 45.7667 25.8783 45.832 26.1676 45.832C26.2049 45.832 26.2236 45.86 26.2236 45.916C26.2236 45.972 26.2049 46 26.1676 46C25.9343 46 25.7476 45.9953 25.6076 45.986L24.7536 45.972L23.9136 45.986C23.7736 45.9953 23.5823 46 23.3396 46ZM28.4857 39.07C28.215 39.07 28.005 38.9953 27.8557 38.846C27.7064 38.6967 27.6317 38.4867 27.6317 38.216C27.6317 37.9733 27.7064 37.782 27.8557 37.642C28.0144 37.4927 28.2244 37.418 28.4857 37.418C28.747 37.418 28.9477 37.488 29.0877 37.628C29.2277 37.768 29.2977 37.964 29.2977 38.216C29.2977 38.4867 29.2277 38.6967 29.0877 38.846C28.9477 38.9953 28.747 39.07 28.4857 39.07ZM27.1417 46C27.1137 46 27.0997 45.972 27.0997 45.916C27.0997 45.86 27.1137 45.832 27.1417 45.832C27.431 45.832 27.627 45.7667 27.7297 45.636C27.8324 45.496 27.8837 45.2393 27.8837 44.866V42.36C27.8837 42.0427 27.851 41.814 27.7857 41.674C27.7204 41.534 27.613 41.464 27.4637 41.464C27.3424 41.464 27.1697 41.5153 26.9457 41.618H26.9317C26.8944 41.618 26.8664 41.5947 26.8477 41.548C26.829 41.492 26.8337 41.4593 26.8617 41.45L28.9757 40.47L29.0177 40.456C29.0644 40.456 29.111 40.4793 29.1577 40.526C29.2044 40.5727 29.2277 40.6147 29.2277 40.652V40.96C29.209 41.3333 29.1997 41.7907 29.1997 42.332V44.866C29.1997 45.2393 29.251 45.496 29.3537 45.636C29.4657 45.7667 29.6664 45.832 29.9557 45.832C29.9837 45.832 29.9977 45.86 29.9977 45.916C29.9977 45.972 29.9837 46 29.9557 46C29.713 46 29.5217 45.9953 29.3817 45.986L28.5417 45.972L27.7157 45.986C27.5757 45.9953 27.3844 46 27.1417 46ZM33.5494 46.168C32.9334 46.168 32.4108 46.0373 31.9814 45.776C31.5614 45.5053 31.2441 45.16 31.0294 44.74C30.8241 44.3107 30.7214 43.8627 30.7214 43.396C30.7214 42.808 30.8848 42.2947 31.2114 41.856C31.5381 41.408 31.9534 41.0673 32.4574 40.834C32.9708 40.5913 33.4934 40.47 34.0254 40.47C34.4734 40.47 34.8748 40.5633 35.2294 40.75C35.5934 40.9367 35.7754 41.1933 35.7754 41.52C35.7754 41.6973 35.7054 41.8513 35.5654 41.982C35.4348 42.1033 35.2481 42.164 35.0054 42.164C34.7814 42.164 34.6041 42.108 34.4734 41.996C34.3428 41.8747 34.2354 41.6927 34.1514 41.45C34.0674 41.1887 33.9834 41.0113 33.8994 40.918C33.8248 40.8153 33.6848 40.764 33.4794 40.764C33.0781 40.764 32.7561 40.9647 32.5134 41.366C32.2801 41.758 32.1634 42.2807 32.1634 42.934C32.1634 43.7087 32.3361 44.3293 32.6814 44.796C33.0268 45.2533 33.5774 45.482 34.3334 45.482C34.5854 45.482 34.8001 45.454 34.9774 45.398C35.1641 45.342 35.3974 45.2487 35.6774 45.118H35.6914C35.7194 45.118 35.7428 45.132 35.7614 45.16C35.7894 45.188 35.7941 45.2113 35.7754 45.23C35.4301 45.5473 35.0848 45.7853 34.7394 45.944C34.3941 46.0933 33.9974 46.168 33.5494 46.168ZM43.1787 45.832C43.2067 45.832 43.2207 45.86 43.2207 45.916C43.2207 45.972 43.2067 46 43.1787 46C42.936 46 42.7447 45.9953 42.6047 45.986L41.7647 45.972L40.6867 45.986C40.528 45.9953 40.3134 46 40.0427 46C40.0147 46 40.0007 45.972 40.0007 45.916C40.0007 45.86 40.0147 45.832 40.0427 45.832C40.3787 45.832 40.5467 45.734 40.5467 45.538C40.5467 45.4353 40.5094 45.342 40.4347 45.258L38.8387 43.214L38.5727 43.452V44.866C38.5727 45.2393 38.624 45.496 38.7267 45.636C38.8387 45.7667 39.0394 45.832 39.3287 45.832C39.366 45.832 39.3847 45.86 39.3847 45.916C39.3847 45.972 39.366 46 39.3287 46C39.086 46 38.89 45.9953 38.7407 45.986L37.9287 45.972L37.0887 45.986C36.9487 45.9953 36.7574 46 36.5147 46C36.496 46 36.4867 45.972 36.4867 45.916C36.4867 45.86 36.496 45.832 36.5147 45.832C36.804 45.832 37 45.7667 37.1027 45.636C37.2147 45.496 37.2707 45.2393 37.2707 44.866V37.754C37.2707 37.4273 37.238 37.194 37.1727 37.054C37.1167 36.914 37.014 36.844 36.8647 36.844C36.734 36.844 36.5567 36.8953 36.3327 36.998H36.3187C36.2907 36.998 36.2627 36.9747 36.2347 36.928C36.216 36.872 36.216 36.8393 36.2347 36.83L38.2787 35.864L38.3487 35.85C38.3954 35.85 38.442 35.8733 38.4887 35.92C38.5447 35.9573 38.5727 35.9947 38.5727 36.032V43.13L39.8747 41.87C40.1174 41.646 40.2387 41.4173 40.2387 41.184C40.2387 41.0627 40.192 40.9647 40.0987 40.89C40.0054 40.806 39.8747 40.764 39.7067 40.764C39.688 40.764 39.6787 40.736 39.6787 40.68C39.6787 40.624 39.688 40.596 39.7067 40.596C39.9774 40.596 40.1874 40.6007 40.3367 40.61L41.4427 40.624L42.4647 40.61C42.5954 40.6007 42.7774 40.596 43.0107 40.596C43.0387 40.596 43.0527 40.624 43.0527 40.68C43.0527 40.736 43.0387 40.764 43.0107 40.764C42.6094 40.764 42.1474 40.8667 41.6247 41.072C41.1114 41.268 40.6494 41.5573 40.2387 41.94L39.7347 42.402L41.6527 44.866C41.9234 45.202 42.18 45.4493 42.4227 45.608C42.6747 45.7573 42.9267 45.832 43.1787 45.832Z" fill="white"/>
<path d="M10 30H26" stroke="white" stroke-width="0.5"/>
<path d="M34 30H50" stroke="white" stroke-width="0.5"/>
</svg>
