<svg width="124" height="36" viewBox="0 0 124 36" fill="none" xmlns="http://www.w3.org/2000/svg">
<path d="M25 15.3001L21 18.3501C20.9 18.4001 20.75 18.4501 20.6 18.3501C19.35 17.3501 11.65 11.2001 10.7 11.6501C9.9 12.0501 8.75 17.3001 9.15 17.7001C9.95 18.4501 23.55 22.6501 24.15 23.6501C24.9 24.8501 23.75 31.1001 23.3 32.0001C22.85 32.9501 13.8 35.8501 12.3 35.4501C9.1 34.6501 2.6 30.6501 1.15 29.7501C1 29.6501 0.95 29.4501 1.05 29.3001L4 25.4501C4.1 25.3001 4.25 25.3001 4.35 25.4001C6.1 26.3501 17.15 32.6501 17.7 32.5001C18.25 32.3001 18.45 27.1001 18.2 26.6501C17.95 26.2501 3.4 21.3501 2.95 20.7501C2.5 20.1501 3.6 12.0001 4.05 11.3001C4.5 10.6501 15.65 9.10006 17 9.45006C18.15 9.75006 23.55 13.7001 25 14.8001C25.2 14.9501 25.2 15.1501 25 15.3001ZM53.6684 24.8001C52.1684 26.5501 46.1684 32.6501 45.6184 32.6501C44.9684 32.6501 35.3184 25.9501 35.1684 25.7501C34.9684 25.6001 35.0684 24.7001 35.0684 24.7001C35.0684 24.7001 55.5684 19.7001 55.8184 19.1001C56.0184 18.6001 50.3184 10.6501 49.3684 10.1001C48.3184 9.45006 38.3684 9.55006 37.8684 9.90006C37.3684 10.2001 30.5684 15.3001 30.0684 16.0501C29.5684 16.8001 28.1184 27.6001 28.3684 28.4501C28.6184 29.2501 37.8184 34.8501 38.4184 35.0501C38.9684 35.2501 46.9684 35.5001 47.5184 35.2001C48.0184 34.9001 54.1184 28.6501 56.1184 26.6001C56.3184 26.4001 56.2684 26.0501 56.0184 25.8501L54.2684 24.7001C54.0684 24.6001 53.8184 24.6501 53.6684 24.8001ZM36.1184 18.8501C36.5684 18.0501 43.6684 12.9001 43.6684 12.9001C44.2684 13.0501 48.1184 18.3501 48.1184 18.3501L35.3184 21.9001C35.3184 21.9001 35.7184 19.7001 36.1184 18.8501ZM91.0512 34.2501L86.9512 30.1001C86.9512 25.1501 86.9012 18.0501 86.6512 17.1001C86.3012 15.7501 82.8512 10.4001 81.5012 10.0001C80.1012 9.60006 74.8012 9.60006 73.1512 9.80006C72.4512 9.90006 70.7512 11.0501 69.1512 13.3001V10.3001C69.1512 10.1501 69.0012 10.0001 68.8512 10.0001H59.2012C58.7512 10.0001 58.6012 10.5001 58.9012 10.8001L62.7012 14.2001V30.0501L58.5512 34.2501C58.2512 34.5501 58.4512 35.0001 58.8512 35.0001H73.0012C73.4012 35.0001 73.6012 34.5501 73.3012 34.2501L69.1512 30.0501V19.3001C70.5012 15.4501 74.4512 12.0001 75.7012 11.8501C76.9512 11.7001 79.5012 16.8501 79.6512 17.9001C79.7012 18.4001 79.8512 25.2001 79.9012 30.0501L75.7512 34.2501C75.4512 34.5501 75.6512 35.0001 76.0512 35.0001H90.7512C91.1512 35.0001 91.3512 34.5501 91.0512 34.2501ZM123.077 34.3001L119.077 30.2501V0.80006C119.077 0.650059 118.927 0.500058 118.777 0.500058H108.977C108.577 0.500058 108.377 0.950058 108.677 1.25006L112.627 5.25006V15.0501C110.777 12.7001 108.727 11.0001 108.027 10.8501C106.727 10.6001 101.577 10.6501 100.377 10.9501C99.1773 11.2501 92.1773 20.5001 92.5273 23.0501C92.8273 25.4001 98.5273 34.5501 99.9773 34.9501C101.377 35.3501 107.277 35.3501 108.927 35.1501C109.727 35.0501 111.227 33.5001 112.627 31.4501V34.7501C112.627 34.9001 112.777 35.0501 112.927 35.0501H122.777C123.177 35.0501 123.377 34.6001 123.077 34.3001ZM105.777 33.2501C104.527 33.3001 99.6273 23.9501 99.5273 22.4001C99.4273 20.9001 104.627 12.7501 105.677 12.7001C107.527 12.6001 112.627 17.9501 112.627 21.7501V23.6001C112.627 28.8501 107.527 33.2001 105.777 33.2501Z" fill="white"/>
</svg>
