<svg width="109" height="35" viewBox="0 0 109 35" fill="none" xmlns="http://www.w3.org/2000/svg">
<path d="M25 14.3L21 17.35C20.9 17.4 20.75 17.45 20.6 17.35C19.35 16.35 11.65 10.2 10.7 10.65C9.9 11.05 8.75 16.3 9.15 16.7C9.95 17.45 23.55 21.65 24.15 22.65C24.9 23.85 23.75 30.1 23.3 31C22.85 31.95 13.8 34.85 12.3 34.45C9.1 33.65 2.6 29.65 1.15 28.75C1 28.65 0.95 28.45 1.05 28.3L4 24.45C4.1 24.3 4.25 24.3 4.35 24.4C6.1 25.35 17.15 31.65 17.7 31.5C18.25 31.3 18.45 26.1 18.2 25.65C17.95 25.25 3.4 20.35 2.95 19.75C2.5 19.15 3.6 11 4.05 10.3C4.5 9.65 15.65 8.1 17 8.45C18.15 8.75 23.55 12.7 25 13.8C25.2 13.95 25.2 14.15 25 14.3ZM53.6684 23.8C52.1684 25.55 46.1684 31.65 45.6184 31.65C44.9684 31.65 35.3184 24.95 35.1684 24.75C34.9684 24.6 35.0684 23.7 35.0684 23.7C35.0684 23.7 55.5684 18.7 55.8184 18.1C56.0184 17.6 50.3184 9.65 49.3684 9.1C48.3184 8.45 38.3684 8.55 37.8684 8.9C37.3684 9.2 30.5684 14.3 30.0684 15.05C29.5684 15.8 28.1184 26.6 28.3684 27.45C28.6184 28.25 37.8184 33.85 38.4184 34.05C38.9684 34.25 46.9684 34.5 47.5184 34.2C48.0184 33.9 54.1184 27.65 56.1184 25.6C56.3184 25.4 56.2684 25.05 56.0184 24.85L54.2684 23.7C54.0684 23.6 53.8184 23.65 53.6684 23.8ZM36.1184 17.85C36.5684 17.05 43.6684 11.9 43.6684 11.9C44.2684 12.05 48.1184 17.35 48.1184 17.35L35.3184 20.9C35.3184 20.9 35.7184 18.7 36.1184 17.85ZM91.0512 33.25L86.9512 29.1C86.9512 24.15 86.9012 17.05 86.6512 16.1C86.3012 14.75 82.8512 9.4 81.5012 9C80.1012 8.6 74.8012 8.6 73.1512 8.8C72.4512 8.9 70.7512 10.05 69.1512 12.3V9.3C69.1512 9.15 69.0012 9 68.8512 9H59.2012C58.7512 9 58.6012 9.5 58.9012 9.8L62.7012 13.2V29.05L58.5512 33.25C58.2512 33.55 58.4512 34 58.8512 34H73.0012C73.4012 34 73.6012 33.55 73.3012 33.25L69.1512 29.05V18.3C70.5012 14.45 74.4512 11 75.7012 10.85C76.9512 10.7 79.5012 15.85 79.6512 16.9C79.7012 17.4 79.8512 24.2 79.9012 29.05L75.7512 33.25C75.4512 33.55 75.6512 34 76.0512 34H90.7512C91.1512 34 91.3512 33.55 91.0512 33.25ZM108.345 11.8V9.35C108.345 9.2 108.195 9.05 108.045 9.05H100.345C100.395 4.7 100.345 1.7 100.345 0.799998C100.345 0.649997 100.195 0.499999 100.045 0.499999H97.4949C97.3949 0.499999 97.2949 0.599998 97.2449 0.7C95.6949 6.9 91.1949 9 88.4949 9.65C88.3949 9.7 88.2949 9.85 88.2949 9.95V11.8C88.2949 11.95 88.4449 12.1 88.5949 12.1H93.9949C93.9449 17.8 93.9949 24.95 93.9949 25.45C94.0449 27.55 101.745 32.85 102.895 33.7C103.895 34.4 107.095 34.25 108.045 34.2C108.245 34.2 108.345 34.05 108.345 33.9V28.2C108.345 28.05 108.195 27.85 107.995 27.9C106.595 28 101.145 28.3 100.345 27.45C99.7949 26.9 100.195 19.75 100.345 12.1H108.045C108.195 12.1 108.345 11.95 108.345 11.8Z" fill="white"/>
</svg>
