<svg width="1057" height="698" viewBox="0 0 1057 698" fill="none" xmlns="http://www.w3.org/2000/svg">
<path opacity="0.98" fill-rule="evenodd" clip-rule="evenodd" d="M1173.34 598.529C1174.45 672.995 1186.1 749.568 1160.99 819.708C1135.76 890.168 1081.82 945.852 1029.71 999.68C978.307 1052.77 922.19 1101.43 856.09 1134.62C789.88 1167.87 717.684 1189.75 643.647 1193.55C570.544 1197.3 499.303 1177.21 429.105 1156.53C359.286 1135.96 290.187 1112.47 229.987 1071.65C168.664 1030.07 111.236 979.981 74.245 915.894C37.5168 852.262 30.2143 777.22 18.2315 704.783C6.3956 633.232 -6.52566 561.364 3.72166 489.57C14.1216 416.708 39.065 346.005 78.336 283.688C117.524 221.503 173.785 173.048 231.747 127.727C290.247 81.9857 350.564 36.1485 421.846 15.0937C493.323 -6.01869 569.193 -0.922438 643.404 6.13476C717.516 13.1826 790.478 27.5754 858.972 56.6628C929.197 86.485 998.681 122.599 1050.1 178.845C1101.51 235.089 1132.99 306.845 1154.44 379.879C1175.23 450.688 1172.24 524.755 1173.34 598.529Z" fill="#0D0D0D"/>
</svg>
